<?xml version="1.0" encoding="UTF-8"?>
<!DOCTYPE svg PUBLIC "-//W3C//DTD SVG 1.1//EN" "http://www.w3.org/Graphics/SVG/1.1/DTD/svg11.dtd">
<!-- Creator: CorelDRAW -->
<svg xmlns="http://www.w3.org/2000/svg" xml:space="preserve" width="110.732mm" height="188.131mm" version="1.1" style="shape-rendering:geometricPrecision; text-rendering:geometricPrecision; image-rendering:optimizeQuality; fill-rule:evenodd; clip-rule:evenodd"
viewBox="0 0 120.4 204.56"
 xmlns:xlink="http://www.w3.org/1999/xlink"
 xmlns:xodm="http://www.corel.com/coreldraw/odm/2003">
 <defs>
  <style type="text/css">
   <![CDATA[
    .str1 {stroke:black;stroke-width:6.52;stroke-linecap:round;stroke-miterlimit:22.9256}
    .str0 {stroke:black;stroke-width:6.52;stroke-linecap:round;stroke-linejoin:round;stroke-miterlimit:22.9256}
    .fil0 {fill:none}
   ]]>
  </style>
 </defs>
 <g id="Слой_x0020_1">
  <metadata id="CorelCorpID_0Corel-Layer"/>
  <g id="_105553361001376">
   <path class="fil0 str0" d="M33.88 91.76c-4.78,-5.87 -12.21,-5.32 -17.09,-1.32 -6.38,5.22 -13.47,17.27 -13.53,29.84 -0.04,10.46 11.41,10.49 15.5,3.21 4.34,-7.71 11.6,-26.15 20.31,-36 4.74,-5.36 11.22,-2.39 10.04,3.99 -1.19,6.42 -9.17,35.42 -7.44,52.3 1.3,12.63 12.16,9.33 14.28,0.94 2.22,-8.74 4.42,-22.67 10.32,-34.95"/>
   <path class="fil0 str0" d="M24.71 100.45c-4.2,-4.77 -12.65,-5.44 -16.12,-1.27 -5.25,6.33 -5.94,20.34 -4.95,31.86 1.35,15.59 14.87,15.87 17.46,1.46 3.65,-20.25 7.79,-38.37 4.01,-57.26 -3.78,-18.89 -8.5,-24.02 -12.63,-34.83 -4.13,-10.8 -0.35,-21.84 15.7,-16.88 16.06,4.96 28.76,-5.06 28.76,-5.06"/>
   <path class="fil0 str0" d="M6.73 91.92c12.28,-2.61 19.01,-12.28 26.07,-24.83 5.88,-10.45 14.3,-30.34 14.98,-45.91 0.97,-22.19 -16.29,-23.86 -23.89,-4.5 -5.51,14.03 -20.62,68.07 -20.62,94.32 0,27.18 5.51,33.01 13.33,33.59 6.93,0.51 11.79,-8.95 10.64,-17.65 -1.22,-9.23 -7.12,-16.24 -23,-14.75"/>
   <path class="fil0 str0" d="M3.26 109.78c4.06,-12.88 10.28,-21.55 15.33,-25.37 10.27,-7.74 18.3,-0.85 14.55,10.59 -3.45,10.51 -9.17,24.55 -11.31,32.82 -2.88,11.11 8.1,13.4 12.42,6.01 3.03,-5.19 6.63,-12.47 9.28,-18.09"/>
   <path class="fil0 str0" d="M29.31 89.53c-4.11,-1.97 -8.37,-2.16 -12.46,-0.28 -7.76,3.57 -13.31,15.76 -13.25,24.3 0.07,9.78 9.16,9.15 13.93,3.15 5.58,-7.02 10.64,-17.08 17.45,-21.49 4.44,-2.88 9.78,-1.48 9.5,4.8 -0.27,6.27 -6.76,54.27 -20.87,71 -14.11,16.73 -22.48,9.93 -19.86,-5.23 2.22,-12.87 15.52,-32.54 38.26,-47.83m0 0c4.04,-2.72 9.19,-5.85 13.75,-8.18"/>
   <path class="fil0 str0" d="M5.38 117.97c9.6,-3.01 35.4,-19.24 21.42,-30.15 -5.64,-4.4 -15.07,-4.77 -19.86,10.25 -2.83,8.85 -3.73,17.44 -3.66,23.76 0.2,19.09 19.59,10.97 29.79,-3.99"/>
   <path class="fil0 str0" d="M5.38 117.97c9.6,-3.01 35.4,-19.24 21.42,-30.15 -5.63,-4.4 -15.07,-4.77 -19.86,10.25 -2.83,8.85 -3.73,17.44 -3.66,23.76 0.19,17.96 19.23,16.6 30.91,2.86m-14.43 -59.9l-2.05 10.82m12.11 -9.31l-2.05 10.82"/>
   <path class="fil0 str0" d="M3.26 97.35c9.58,-14.43 14.55,-16.92 20.77,-15.67 6.22,1.24 9.08,13.31 7.71,29.11 -0.52,5.98 -1.54,12.11 -4,17.75 -6.67,15.32 -25.66,6.66 -15.83,-7.23 3.78,-5.34 12.78,-12.45 20.16,-17.78m0 0c2.64,-1.9 4.83,-3.41 6.83,-4.76 5.93,-4.01 10.53,-0.96 10.3,4.13 -0.21,4.69 -0.55,7.5 -0.47,9.39 0.27,5.99 6.28,6.93 9.47,2.69 2.26,-2.99 7.96,-17.53 10.47,-22.72 3.98,-8.21 14.23,-5.71 12.61,3.81 -1.62,9.52 -5.9,21.82 -5.89,31.64 0.01,7.51 6.36,11.52 13.06,5.09 3.96,-3.8 10.52,-12.71 15.67,-23.02"/>
   <path class="fil0 str0" d="M7.46 99.53c7.51,-23.89 37.15,-15.71 17.09,10.25l-9.38 12.14m32.96 -6.72c-3.95,1.78 -8.07,3.95 -11.45,5.92m0 0c-22.76,13.32 -32.25,30.11 -33.33,42.46 -1.24,14.18 10.32,16.92 19.65,6.22 5.22,-5.99 16.18,-31.98 13.81,-47.92 -1.34,-9 -7.78,-9.09 -13.9,-8"/>
   <path class="fil0 str0" d="M6.38 87.4c-2.24,16.67 -2.86,23.38 -3.11,32.46 -0.25,9.08 9.45,13.56 16.17,4.1 6.72,-9.45 13.69,-24.07 16.92,-29.42 3.23,-5.35 11.44,-4.54 11.2,3.92 -0.25,8.46 -1.13,38.57 -1.13,38.57"/>
   <path class="fil0 str0" d="M15.37 72.22l19.4 0m-29.59 15.05c-1.62,15.46 -2,24.55 -1.91,32.97 0.09,8.42 8.83,10.71 14.02,1.63 5.19,-9.08 13.12,-24.57 17.58,-29.53 4.47,-4.96 11.21,-4.08 11.27,3.76 0.06,7.84 -0.57,37.32 -0.57,37.32"/>
   <path class="fil0 str0" d="M40.2 158.73c-6.59,-4.1 -6.97,-11.94 -4.85,-26.74 2.11,-14.8 0.12,-24.88 -15.92,-19.28m-11.82 -26.8c-2.49,19.9 -4.1,34.42 -4.34,42.29 -0.25,7.87 10.64,8.46 11.64,1.06 0.99,-7.4 3.98,-27.48 15.22,-39.37 9.66,-10.22 17.19,-4.07 18.51,1.07"/>
   <path class="fil0 str0" d="M33.86 138.18c-3.23,-14.77 -0.54,-36.8 1.18,-46.31 1.31,-7.21 -6.72,-10.22 -11.73,-3.79 -9.8,12.58 -12.73,35.46 -20.05,46.27"/>
   <path class="fil0 str0" d="M3.26 133.61c2.74,-20.9 7.48,-38.53 10.21,-45.38 2.74,-6.84 11.46,-5.99 10.88,1.7 -0.58,7.69 -0.94,11.64 -0.94,19.85 0,8.21 9.08,10.35 12.81,2.93 3.73,-7.41 8.33,-19.9 12.94,-26.12 4.6,-6.22 13.49,-3.89 11.37,4.07 -2.11,7.96 -10.38,22.92 -7.89,50.78"/>
   <path class="fil0 str0" d="M4.14 93.93c-2.24,15.85 0.5,31.59 0.5,31.59m31.35 -40.92c0,21.22 0.01,33.22 1.25,43.29 1.57,12.73 9.71,13.9 17.41,8.09m-51.32 -25.01l32.75 -4.7"/>
   <path class="fil0 str0" d="M57.63 94.92c-9.06,4.49 -14.7,8.62 -20.11,10.9m0 0c-7.07,2.98 -16.15,4.36 -24.87,1.64m0 0c-15.19,-4.73 -11.75,-27.75 9.05,-24.57 23.76,3.63 19.04,55.2 -1.75,51.95 -17.38,-2.72 -8.74,-28.32 -1.99,-37.69"/>
   <path class="fil0 str0" d="M7.48 89.42c-1.7,9.72 -4.85,31.34 -4.1,39.27 0.61,6.45 8.09,7.78 10.57,1.73 2.57,-6.26 10.84,-31.26 18.66,-39.67 6.59,-7.09 14.37,-1.44 13.31,5.3 -1.3,8.29 -2.85,22.87 -2.27,32.37 0.5,8.16 10.1,8.23 12.38,1.8 2.37,-6.69 4.84,-13.1 6.85,-18.43"/>
   <path class="fil0 str0" d="M4.83 124.64c13.21,4.75 22.13,2.35 30.52,-15.75 8.71,-18.78 -1.67,-25.17 -12.19,-16.92 -6.11,4.79 -10.2,12.81 -11.82,23.63m-3.11 -38.19c-6.97,37.07 -5.72,69.66 -1.74,84.83"/>
   <path class="fil0 str0" d="M32.04 94.71c0.75,-11.07 -17.54,-15.8 -26.12,11.07 -8.58,26.87 5.44,34.94 16.44,23.93 11,-11.01 17.32,-16.3 21.24,-19.2"/>
   <path class="fil0 str1" d="M36.7 122.79c-3.49,18.7 -8.65,42.41 -13.52,51.28 -8.21,14.94 -22.21,10.04 -17.86,-5.88 4.35,-15.92 19.31,-44.82 56.25,-59.51m-54.6 -24.88c-1.33,4.75 -4.41,16.61 -3.55,24.68 0.86,8.06 8.69,10.48 13.39,3.28 4.7,-7.2 10.46,-16.69 14.13,-21.39 3.65,-4.68 11.28,-3.26 10.19,4.33 -0.44,3.08 -2.04,15.29 -4.42,28.08"/>
   <path class="fil0 str1" d="M8.57 89.05c-2.58,10.02 -5.03,21.7 -5.3,31.72 -0.27,10.02 9.72,8.97 12.16,2.59 2.44,-6.38 4.03,-9.43 6.06,-14.34 2.03,-4.91 10.22,-4.7 9.79,2.63l-0.58 10.02c-0.26,4.5 7.14,8.46 10.54,0.82 3.4,-7.64 10.98,-25.86 14.51,-33.44 3.54,-7.58 13.74,-6.42 12.38,2.57 -1.36,8.99 -8.02,42.38 -9.11,50.6 -1.09,8.22 9.93,11.56 14.14,2.95 4.22,-8.6 9.2,-19.01 9.2,-19.01"/>
   <path class="fil0 str0" d="M29.88 97.35c-5.1,-7.36 -11.25,-5.79 -15.38,-3.1 -8.26,5.37 -12.84,21.33 -10.72,30.09 2.14,8.87 10.62,13.24 17.89,-0.12 5.69,-10.46 10.34,-17.86 15.15,-23.35m0 0c4.23,-4.83 8.63,-8.24 13.23,-10.1 9.83,-3.98 18.06,5.95 15.27,19.53 -2.86,13.93 -15.18,22.14 -23.01,16.29m-4.27 -50.38c-2,30.1 -2.73,83.45 -2.97,106.97"/>
   <path class="fil0 str0" d="M50.78 83.17c-21.89,20.15 -35.82,34.33 -47.52,63.19m3.43 -61.64c5.34,-2.46 13.11,-3.28 15.23,10.9 0.88,5.92 1.47,10.45 2.21,14.73m0 0c1.02,5.98 1.8,11.51 4.76,17.61 4.6,9.47 17.17,8.46 26.12,-4.23"/>
   <path class="fil0 str0" d="M3.26 86.65c0.59,17.28 2.51,27.62 4.5,33.59 1.99,5.97 8.2,6.97 12.31,2.12 4.1,-4.85 13.85,-22.91 16.65,-28.25 2.8,-5.35 10.37,-4.04 10.32,2.36 -0.02,3.53 -2.53,14.34 -3.9,23.93 -0.71,4.96 2.91,9.39 7.76,9.18 8.58,-0.37 8.58,9.57 2.98,16.77"/>
   <path class="fil0 str0" d="M3.96 84.79c-0.5,15.67 -1.23,31.12 -0.11,37.71 1.11,6.56 7.95,7.94 11.93,2.09 4.26,-6.25 11.69,-25.55 13.48,-30.26 2.31,-6.07 10.58,-4.39 10.4,1.4 -0.16,5.1 -3.54,16.54 -2.92,24.07 0.47,5.72 5.72,7.5 10.45,4.48 7.48,-4.79 17.43,-28.91 19.4,-33.21 2.49,-5.41 10.66,-4.11 10.23,2.3 -0.3,4.39 -3.02,16.35 -3.51,27.04 -0.23,5 2.91,9.39 7.76,9.18 8.58,-0.37 8.58,9.57 2.98,16.77"/>
   <path class="fil0 str0" d="M3.28 84.35c-0.1,5.71 0.23,13.6 2.11,17.41 1.89,3.81 6.41,5.04 10.32,2.43 3.92,-2.61 9.38,-9.79 12.44,-14.12 3.21,-4.54 9.64,-3.67 9.95,2.86 0.31,6.53 -3.11,43.04 -3.11,43.04"/>
   <path class="fil0 str0" d="M3.96 84.79c-0.5,15.67 -1.23,31.12 -0.11,37.71 1.11,6.56 7.95,7.94 11.93,2.09 4.26,-6.25 11.69,-25.55 13.48,-30.26 2.31,-6.07 10.58,-4.39 10.4,1.4 -0.16,5.1 -3.54,16.54 -2.92,24.07 0.47,5.72 5.72,7.5 10.45,4.48 7.48,-4.79 17.43,-28.91 19.4,-33.21 2.49,-5.41 10.66,-4.11 10.23,2.3 -0.46,6.74 -3.67,24.93 -6.19,40.43"/>
   <path class="fil0 str0" d="M11.56 86.4c-8.58,22.51 -12.44,40.21 -1.99,48.65 10.35,8.37 24.81,-2.17 19.78,-15.69 -2.7,-7.25 -8.64,-9.01 -17.08,-11.42"/>
   <path class="fil0 str0" d="M9.93 89.88c-7.01,18.38 -9.91,32.83 -1.62,39.72 6.7,5.57 14.29,1.21 15.45,-4.69 1.2,-6.17 -1.68,-9.34 -4.28,-12.05 -3.09,-3.22 -2.99,-7.6 1.28,-10.32 4.35,-2.77 16.52,-10.1 21.9,-13 5.38,-2.9 11.05,0.5 10.74,6.1 -0.31,5.6 -2.6,48.5 -2.6,48.5"/>
   <path class="fil0 str0" d="M3.26 87.26c4.86,-0.81 7.36,-1.19 11.45,-1.42 8.38,-0.46 8.48,5.71 7.06,10.94 -4.83,17.81 -7.07,31.18 1.71,38.27 10.35,8.37 24.81,-2.17 19.78,-15.69 -2.7,-7.25 -8.64,-9.01 -17.08,-11.42"/>
   <path class="fil0 str0" d="M6.75 113.98l32.83 -4.74m-36.31 -24.11c29.43,-2.71 36.64,13.43 36.31,24.11 -0.59,19.28 -16.54,30.22 -36.06,31.11"/>
   <path class="fil0 str0" d="M51.95 106.55c4.2,15.31 -4.03,30.86 -13.19,30.86 -9.15,0 -14.94,-10.76 -14.94,-25.7 0,-14.94 7.42,-27.05 16.57,-27.05 6.51,0 12.15,6.14 14.86,15.06m-31.41 11.82l-18.59 2.07m0 -29.23l-1.99 54.4"/>
   <path class="fil0 str1" d="M42.76 144.3l3.47 -36.36c0.87,-9.17 -5,-11.86 -10.99,-10.29 -5.99,1.57 -21.26,8.94 -27.61,0.24 -6.34,-8.7 2.18,-18.76 11.76,-16.24 7.91,2.09 9.67,9.23 8.72,18.29m0 0c-1,9.52 -4.99,21.08 -7.66,27.78 -4.42,11.05 -18.66,9.06 -17.07,-3.7"/>
  </g>
  <g id="_105553360557024">
   <path class="fil0 str0" d="M33.88 94.29c-4.78,-5.87 -12.21,-5.32 -17.09,-1.32 -6.38,5.22 -13.47,17.27 -13.53,29.84 -0.04,10.46 11.41,10.49 15.5,3.21 4.34,-7.71 11.6,-26.15 20.31,-36 4.74,-5.36 11.22,-2.39 10.04,3.99 -1.19,6.42 -9.17,35.42 -7.44,52.3 1.3,12.63 12.16,9.33 14.28,0.94 2.22,-8.74 4.42,-22.67 10.32,-34.95"/>
   <path class="fil0 str0" d="M29.31 89.74c-4.11,-2.27 -8.37,-2.5 -12.46,-0.32 -7.76,4.13 -13.31,18.21 -13.25,28.08 0.07,11.31 9.16,10.58 13.93,3.64 5.58,-8.11 10.64,-19.74 17.45,-24.83 4.44,-3.32 9.78,-1.71 9.5,5.54 -0.27,7.25 -6.76,62.72 -20.87,82.05 -14.11,19.33 -22.48,11.48 -19.86,-6.04 2.22,-14.88 15.52,-37.6 38.26,-55.27m0 0c4.04,-3.14 15.58,-10.11 20.91,-13.31"/>
   <path class="fil0 str0" d="M5.38 118.42c9.6,-3.01 35.4,-19.24 21.42,-30.15 -5.63,-4.4 -15.07,-4.77 -19.86,10.25 -2.83,8.85 -3.73,17.44 -3.66,23.76 0.2,19.09 19.59,10.97 29.79,-3.99"/>
   <path class="fil0 str0" d="M57.63 96.05c-9.06,4.49 -14.7,8.62 -20.11,10.9m0 0c-7.07,2.98 -16.15,4.36 -24.87,1.64m0 0c-15.19,-4.73 -11.75,-27.75 9.05,-24.57 23.76,3.63 19.04,55.2 -1.75,51.95 -17.38,-2.72 -8.74,-28.32 -1.99,-37.69"/>
   <path class="fil0 str0" d="M21.35 54.6c-10.65,27.63 -18.78,63.43 -18.04,71.36 0.61,6.45 8.09,7.78 10.57,1.73 2.57,-6.26 3.61,-15.09 9.2,-24.74 4.86,-8.37 13.77,-4.22 13.06,2.56 -0.84,7.98 -1.85,21.37 -1.27,30.88 0.5,8.16 10.1,8.23 12.38,1.8 2.37,-6.69 4.84,-13.1 6.85,-18.43"/>
   <path class="fil0 str0" d="M5.39 88.5c-1.7,9.72 -2.61,20.15 -1.87,28.07 0.61,6.45 6.07,8.57 11.69,5.21 10.28,-6.13 14.39,-17.53 18.81,-26.78 3.24,-6.76 11.95,-4.18 10.89,2.56 -0.9,5.76 -6.21,19.25 -8.97,31.52 -1.77,7.89 6.58,12.31 12.36,5.81 3,-3.37 11.02,-17.83 17.37,-24.9"/>
   <path class="fil0 str0" d="M5.39 89.51c-1.7,9.72 -2.61,20.15 -1.87,28.07 0.61,6.45 8.53,6.63 9.95,0.24 2.2,-9.86 6.44,-19.99 18.95,-27.4 5.94,-3.52 12.46,-1.02 11.4,5.72 -1.3,8.29 -10.06,37.54 -9.48,47.05 0.5,8.16 10.1,8.23 12.38,1.8 2.37,-6.69 4.84,-13.1 6.86,-18.43"/>
   <path class="fil0 str0" d="M4.83 122.19c13.21,4.75 22.13,2.35 30.52,-15.75 8.71,-18.78 -1.67,-25.17 -12.19,-16.92 -6.11,4.79 -10.2,12.81 -11.82,23.63m-3.11 -38.19c-6.97,37.07 -5.72,69.66 -1.74,84.83"/>
   <path class="fil0 str0" d="M32.04 96.1c0.75,-11.07 -17.54,-15.8 -26.12,11.07 -8.58,26.87 5.44,34.94 16.44,23.93 11,-11.01 17.32,-16.3 21.24,-19.2"/>
   <path class="fil0 str1" d="M36.7 121.39c-3.49,18.7 -8.65,42.41 -13.52,51.28 -8.21,14.94 -22.21,10.04 -17.86,-5.88 4.35,-15.92 19.31,-44.82 56.25,-59.51m-54.6 -24.88c-1.33,4.75 -4.41,16.61 -3.55,24.68 0.86,8.06 8.69,10.48 13.39,3.28 4.7,-7.2 10.46,-16.69 14.13,-21.39 3.65,-4.68 11.28,-3.26 10.19,4.33 -0.44,3.08 -2.04,15.29 -4.42,28.08"/>
   <path class="fil0 str1" d="M8.57 86.68c-2.58,10.02 -5.03,21.7 -5.3,31.72 -0.27,10.02 9.72,8.97 12.16,2.59 2.44,-6.38 4.03,-9.43 6.06,-14.34 2.03,-4.91 10.22,-4.7 9.79,2.63l-0.58 10.02c-0.26,4.5 7.14,8.46 10.54,0.82 3.4,-7.64 10.98,-25.86 14.51,-33.44 3.54,-7.58 13.74,-6.42 12.38,2.57 -1.36,8.99 -8.02,42.38 -9.11,50.6 -1.09,8.22 9.93,11.56 14.14,2.95 4.22,-8.6 9.2,-19.01 9.2,-19.01"/>
   <path class="fil0 str0" d="M50.78 84.58c-21.89,20.15 -35.82,34.33 -47.52,63.19m3.43 -61.64c5.34,-2.46 13.11,-3.28 15.23,10.9 0.88,5.92 1.47,10.45 2.21,14.73m0 0c1.02,5.98 1.8,11.51 4.76,17.61 4.6,9.47 17.17,8.46 26.12,-4.23"/>
   <path class="fil0 str1" d="M7.17 57.65c-1.49,48.76 -5.68,68.42 -3.06,88.22 1.46,10.97 11.44,12.18 17.9,2.21 3.25,-5.02 6.21,-11.4 8.47,-17.94"/>
   <path class="fil0 str1" d="M8.64 66.94c-0.51,3.67 -1,7.07 -1.45,10.22m-1.86 13.02c-2.26,16.26 -2.88,24.38 -0.78,34.11 2.92,13.51 21.21,13.56 28.04,-9.48"/>
   <path class="fil0 str1" d="M38.62 154.84c6.47,-47.76 18.66,-93.04 20.65,-100.5 1.99,-7.46 -7.84,-10.08 -10.82,-2.74 -2.99,7.34 -19.31,60.01 -23.38,72.02 -4.73,13.94 -24.88,13.93 -21.39,-4.98 3.48,-18.91 17.41,-31.22 30.6,-25.75"/>
   <path class="fil0 str1" d="M4.26 85.52c-1,20.15 -1,33.95 -1,42.79 0,8.84 11.69,10.7 14.18,1 2.49,-9.7 3.91,-28.85 35.57,-33.09"/>
   <path class="fil0 str1" d="M38.09 98.09c1,33.34 3.48,57.71 -6.47,79.11 -9.95,21.39 -28.69,11.17 -28.36,-8.46 0.25,-14.74 13.1,-37.14 35.69,-45.37m0 0c7.49,-2.73 17.24,-4.35 26.37,-3.02m-27.24 -36.6l0 -9.4"/>
   <path class="fil0 str1" d="M11.23 107.43c22.99,-13.98 33.74,-34.44 35.48,-51.86 1.74,-17.41 -14.83,-19.03 -20.8,-2.62 -5.78,15.9 -13.93,45.28 -18.41,75.87 -4.48,30.6 -4.58,45.29 -3.98,59.95 0.75,18.16 16.76,15.03 19.75,0.35 2.55,-12.55 -2.64,-42.76 -5.57,-55.08 -2.93,-12.32 -3.23,-14.18 2.99,-18.16 6.22,-3.98 20.35,-8.1 20.35,-8.1"/>
   <path class="fil0 str1" d="M15.2 83.79c-8.96,29.19 -11.94,53.31 -11.94,53.31m36.82 -42.2c5.64,-9.77 -4.36,-14.21 -11.36,-10.27 -4.75,2.68 -10.06,7.15 -16.86,10.79"/>
   <path class="fil0 str1" d="M27.69 74.07c-17.25,13.27 -21.73,21.56 -23.72,25.87 -1.99,4.31 -0.17,12.44 10.28,8.46 10.45,-3.98 29.19,-14.1 28.03,1.82 -1.16,15.92 -13.43,36.49 -22.55,42.62 -9.12,6.14 -18.78,0.39 -14.26,-9.95 4.78,-10.92 18.9,-19.41 35.82,-26.23m0 0c7.02,-2.82 14.96,-5.02 21.23,-5.12"/>
   <path class="fil0 str1" d="M3.26 89.16l20.69 -7.85m0 0l28.24 -10.72m-26.7 -6.97c-3.32,36.49 -4.74,64.69 -5.64,80.27 -0.66,11.44 11.28,12.36 15.59,2.99 4.31,-9.38 11.61,-26.37 23.05,-35.99"/>
   <path class="fil0 str1" d="M4.02 79.92c12.02,12.6 29.35,4.39 37.81,3.32 8.46,-1.08 10.08,9.5 3.03,12.15 -15.41,5.8 -32.07,14.62 -40.68,29.15 -2.65,4.48 0.41,12.61 8.87,9.78 8.46,-2.83 22.97,-11.94 43.2,-5.14m-33.49 -20.86l19.57 5.91m-33.3 -10.05l9.78 2.95"/>
   <path class="fil0 str1" d="M7.75 49.71c-5.72,61.45 -5.97,79.36 -0.75,95.53m-2.28 -30.21c10.38,-5.79 18.5,-13.7 21.27,-21.06 2.49,-6.59 -2.34,-11.16 -8.54,-8.19 -4.86,2.33 -7.22,4.54 -13,10.51m33.15 40.49c-16.42,-4.48 -26.06,-19.19 -29.19,-23.96"/>
   <path class="fil0 str1" d="M7.96 77.5c-2.4,10.12 -4.13,20.78 -4.67,27.36 -0.54,6.59 5.99,8.64 11.03,3.42 5.04,-5.22 9.91,-10.93 13.93,-14.74 4.02,-3.81 11.49,-1.66 10.28,5.85 -1.24,7.66 -5.57,25.24 -7.12,34.33 -1.51,8.83 9.84,11.97 13.62,2.88 2.34,-5.63 8.06,-22.35 14.45,-36.26 3.75,-8.16 7.69,-11.61 23.76,-12.02"/>
   <path class="fil0 str0" d="M32.38 87.27c-12.24,-2.58 -28.44,13.94 -29.1,30.29 -0.5,12.45 9.16,11.65 13.93,4.01 5.58,-8.94 17.31,-27.1 23.11,-33.77 3.95,-4.53 12.58,-1.69 10.06,6.29 -2.51,7.99 -20.19,48.2 -27.84,88.9"/>
   <path class="fil0 str1" d="M17.55 45.73c-12.44,44.28 -15.42,80.1 -13.93,103.49m-0.32 -15.31c19.87,7.35 30.42,-5.59 34.03,-24.37 3.61,-18.78 -7.88,-30.23 -24.96,-7.09"/>
  </g>
  <g id="_105553360669312">
   <path class="fil0 str0" d="M19.75 69.29c3.31,-6.51 14.59,-9.32 21.45,-2.75 7.19,6.89 11.87,19.42 11.87,33.65 0,21.81 -11.15,39.49 -24.9,39.49 -13.75,0 -24.9,-17.68 -24.9,-39.49 0,-12.6 5.29,-28.4 11.97,-37.23"/>
   <path class="fil0 str0" d="M4.64 138.69c6.88,-29.6 18.85,-64.4 22.06,-72.66 3.21,-8.26 11.9,-6.04 12.7,0.04 0.8,6.08 9.06,73.76 9.06,73.76m-45.2 -28.45l9.04 -1.49m0 0l31.86 -5.25"/>
   <path class="fil0 str0" d="M6.4 69.95c0.67,11.89 -3.14,65.75 -3.14,65.75m57.67 -41.52c-3.21,0.97 -5.94,1.99 -8.74,3.28m0 0c-17.34,8.01 -27.03,21.69 -28.97,31.84 -2.27,11.93 7.35,19.35 17.28,10.88 10.66,-9.09 19.75,-42.53 5.95,-50.04 -13.8,-7.52 -30.41,13.69 -30.41,13.69m-10.08 -13.26c8.51,-15.23 15.25,-25.78 22.99,-29.82 7.74,-4.04 13.58,-0.79 12.12,7.74 -1.46,8.53 -11.66,23.45 -11.66,23.45"/>
   <path class="fil0 str0" d="M26.59 97.68l-22.45 1.29m35.2 -36.8l-25.25 -2.36c-6.94,-0.65 -10.24,2.36 -10.32,11.32l-0.5 55.97c-0.09,10.12 6.73,10.46 10.45,10.12l23.88 -2.16"/>
   <path class="fil0 str0" d="M5.99 60.2c-2.24,28.86 -3.48,54.87 -2.24,64.43 1.24,9.56 12.07,9.95 16.54,1.12 4.48,-8.83 23.51,-54.36 27.74,-63.56 4.23,-9.2 14.49,-5.71 13.74,2.5 -0.75,8.21 -7.77,77.11 -7.77,77.11"/>
   <path class="fil0 str0" d="M49.69 60.7c0.64,28.86 -0.17,56.94 -1.33,64.43 -1.16,7.49 -10.03,9.62 -13.21,2.61 -3.18,-7.01 -14.29,-52.7 -18.01,-61.9 -3.72,-9.2 -14.17,-5.71 -13.88,2.5 0.29,8.21 2.99,66.14 2.99,66.14"/>
   <path class="fil0 str0" d="M3.26 51.18c3.98,39.6 8.76,63.29 11.34,73.04 2.59,9.75 14.53,10.55 17.12,-0.2 2.59,-10.75 -1,-23.88 20.1,-59.51"/>
   <path class="fil0 str1" d="M34.18 74.33c-2.52,-15.74 -14.01,-19.83 -21.88,-5.19 -7.87,14.64 -11.49,41.24 -7.24,56.66 4.25,15.42 20.27,10.85 31.01,-13.69"/>
   <path class="fil0 str1" d="M3.26 59.07l0 77m38.14 9.91l-27.63 -31.7c-1.76,-2.02 -2.34,-4.52 -1.97,-7.18 0.37,-2.66 2.52,-4.83 5.03,-5.78 9.81,-3.7 19.84,-11.65 21.91,-26.49 3.48,-25.04 -26.77,-21.33 -27.73,6.9"/>
   <path class="fil0 str1" d="M3.26 65.89l56.22 -11.94m-30.85 78.65c0,0 -7.01,-8.14 -0.85,-71.92"/>
   <path class="fil0 str1" d="M39.66 56.74c-29.19,16.25 -32.67,26.2 -35.33,31.68 -2.65,5.47 -0.83,16.92 10.78,11.44 11.61,-5.47 27.88,-15.1 29.7,4.31m0 0c1.82,19.4 -6.98,34.34 -22.07,34.34 -15.09,0 -18.74,-14.43 -7.13,-23.05 11.61,-8.62 22.39,-11.78 48.26,-12.77"/>
   <path class="fil0 str1" d="M6.94 54.15c-5.77,39.55 -3.22,82.59 -2.47,91.05m40.78 -80.1c-15.92,24.13 -41.96,50.99 -41.96,50.99m36.74 19.41c-16.42,-4.23 -20.72,-10.48 -28.51,-28.24"/>
   <path class="fil0 str1" d="M4.93 59.96l-1.66 62.03c-0.08,3.02 1.13,5.66 3.48,7.56 2.35,1.9 5.18,2.54 8.12,1.83l25.22 -6.08"/>
   <path class="fil0 str1" d="M46.38 55.06c0,0 -27.86,54.73 -36.82,82.92m-6.3 -83.26c9.58,20.72 15.27,33.97 21.08,46.43m0 0c6.35,13.62 13.6,28.41 31,36.16"/>
   <path class="fil0 str1" d="M27.43 94.48l-22.78 2.98m30 -38.3l-23.01 2.52c-4.96,0.54 -8.63,4.86 -8.37,9.84l3.51 66.25"/>
   <path class="fil0 str1" d="M7.5 68.09c0,0 -3.9,58.21 -4.23,68.41 -0.25,7.71 11.19,8.27 11.69,0 0.58,-9.69 -2.24,-42.66 13.68,-62.44 12.55,-15.59 27.12,-14.43 30.1,3.48 2.99,17.91 -7.71,46.77 -17.66,56.22 -6.45,6.13 -15.64,5.13 -19.83,3.75"/>
   <path class="fil0 str1" d="M3.71 59.27c-0.83,13.93 -0.62,26.18 1.66,33.25 2.4,7.46 11.11,8.21 14.93,0.91 3.65,-6.99 12.31,-24.37 15.09,-30.85 3.32,-7.71 14.18,-7.55 14.76,1.33 0.75,11.48 -6.8,63.52 -15.76,72.64 -8.96,9.12 -24.55,5.97 -22.39,-10.12 1.7,-12.71 18.01,-23.69 34.9,-28.95m0 0c4.49,-1.4 8.28,-2.16 12.73,-2.72"/>
   <path class="fil0 str1" d="M64.28 148.79c-0.5,-34.33 -0.75,-66.92 -1.74,-80.85 -1,-13.93 -10.95,-15.17 -17.17,-6.97 -6.22,8.21 -8.31,19.5 -10.05,26.97 -1.74,7.46 -11.83,8.7 -13.45,-0.87 -1.11,-6.6 -1.3,-11.27 -4.03,-21 -2.1,-7.46 -12.91,-7.58 -13.79,1.99 -2.25,24.47 0.95,53.57 2.26,63.78"/>
   <path class="fil0 str1" d="M6.5 60.98l-3.23 86.57m43.04 -88.81l1 93.79m-42.58 -43.77l42.03 -7.97"/>
   <path class="fil0 str1" d="M4.13 139c-1.74,-23.38 -0.5,-70.4 0.5,-78.86 1,-8.46 13.81,-7.71 12.44,1.49 -0.87,5.83 -4.63,17.82 -4.63,30.11 -0,16.62 15.1,22.25 25.63,8.89 7.63,-9.68 12.03,-22.92 10.86,-35.28 -1.14,-12.09 -14.66,-16.52 -26.01,3.99"/>
   <path class="fil0 str1" d="M3.26 60.48c4.8,24.34 37.05,5.97 53.24,3.48 6.47,-1 11.94,2.74 7.46,9.45 -10.14,15.21 -29.11,21.41 -39.8,44.65 -2.01,4.36 -0.51,12.77 8.7,10.8 8.26,-1.76 21.15,-5.5 33.58,0m-41.05 -37.54c5.11,0.88 10.79,2.29 15.99,3.75m0 0c9.47,2.65 17.35,5.45 17.35,5.45"/>
   <path class="fil0 str1" d="M7.46 55.46c-6.47,33.34 -3.91,54.22 -2.49,60.95 1.49,7.09 10.82,7.71 14.06,0.5 4.41,-9.85 4.32,-9.34 7.62,-16.36 2.91,-6.18 12.74,-6.54 13.36,2.42 0.59,8.44 -1.55,21.82 2.68,31.77 4.23,9.95 15.7,11.14 21.34,0 9.7,-19.17 10.59,-59.14 9.6,-70.33"/>
   <path class="fil0 str1" d="M41.7 65.12c-13.53,-11.54 -26.27,3.78 -34.23,17.51 -7.96,13.73 -4.66,26.22 10.15,20.3 8.96,-3.58 17.12,-11.94 22.49,-16.52 5.37,-4.58 13.37,-3.34 11.48,6.71 -1.89,10.06 -6.1,33.53 -19.04,44.95 -12.94,11.43 -23.68,5.46 -15.72,-8.28 6.37,-10.99 17.4,-16.54 30.3,-17.53m0 0c3.22,-0.25 7.45,-0.3 10.7,0.02"/>
   <path class="fil0 str1" d="M3.26 140.08c25.62,-7.96 62.44,-12.19 62.44,-12.19m-58.96 -62.94l51.25 2.74m-33.14 66.91c-0.44,-23.87 3.66,-68.49 3.66,-68.49"/>
   <path class="fil0 str1" d="M5.75 77.89c13.93,-3.48 20.52,-8.96 24.88,-11.94 4.35,-2.99 9.58,-0.5 9.58,5.22 0,5.72 0.62,100.47 -36.94,66.9"/>
   <path class="fil0 str0" d="M33.12 116.06c6.39,7.67 0.26,12.1 -1.53,12.91 -5.05,2.3 -12.18,2.55 -17.01,-2.07 -6.85,-6.57 -11.32,-18.52 -11.32,-32.09 0,-20.8 10.63,-37.65 23.75,-37.65 13.11,0 23.75,16.86 23.75,37.65 0,8.81 -2.15,18.19 -6.16,26.43 -2.19,4.5 -2.94,8.32 5.32,15.29"/>
  </g>
  <g id="_105553360646048">
   <path class="fil0 str0" d="M7.29 100.89l38 -6.3m-42.04 -32.05c34.07,-3.61 42.42,17.85 42.04,32.05 -0.69,25.62 -19.15,40.17 -41.75,41.35"/>
   <path class="fil0 str0" d="M3.26 59.45l70.25 -3.58m-58.71 82.79l4.06 -80m42.51 84.78c0,0 -1.42,-48.41 2.87,-87.09"/>
   <path class="fil0 str1" d="M35.84 64.3c-2.65,-18.11 -14.76,-22.81 -23.05,-5.97 -8.29,16.84 -12.11,47.44 -7.63,65.18 4.48,17.74 21.36,12.49 32.67,-15.75"/>
   <path class="fil0 str1" d="M3.26 64.05l56.22 -11.94m-30.85 78.65c0,0 -7.01,-8.14 -0.85,-71.92"/>
   <path class="fil0 str1" d="M63.32 53.92c0,0 -39.38,32.09 -60.05,78.2m5.79 -75.79c4.54,10.85 9.14,24.91 16.11,38.83m0 0c8.57,17.11 20.4,33.3 35.95,34.56"/>
   <path class="fil0 str1" d="M4.13 139.95c-1.74,-23.38 -0.5,-70.4 0.5,-78.86m0 0c1,-8.46 13.81,-7.71 12.44,1.49 -0.87,5.83 -4.63,17.82 -4.63,30.11 -0,16.62 15.1,22.25 25.63,8.89 7.63,-9.68 12.03,-22.92 10.86,-35.28 -1.14,-12.09 -14.66,-16.52 -26.01,3.99"/>
   <path class="fil0 str1" d="M51.28 54.75c-14.93,51.74 -22.14,75.13 -48.01,84.33m2.24 -82.09c0,0 15.24,36.17 29.02,49.18"/>
   <path class="fil0 str1" d="M43.21 51.76l-2.74 96.27m-7.21 -86.07c-7.58,-4.48 -13.79,-5.57 -18.59,-3.74 -11.7,4.44 -18.27,33.67 -0.21,32.54 11.32,-0.71 18.59,-12.98 28.22,-20.66m0 0c9.59,-7.64 14.52,-12.21 24.15,-13.11 10.57,-0.99 16.05,5.97 13.18,20.77 -2.86,14.8 -21.64,15.92 -30.1,11.32"/>
   <path class="fil0 str1" d="M6.27 54.74c-4.73,38.31 -3.48,57.47 1,68.16 4.48,10.7 17.17,10.2 25.37,-2.74 8.21,-12.94 18.91,-43.78 22.26,-52.74 3.36,-8.96 14.3,-5.97 13.18,2.74 -0.81,6.27 -4.54,25.4 -6.42,45.77 -0.81,8.8 5.3,11.62 8.18,12.78 11.87,4.81 4.87,15.04 -0.52,21.3"/>
   <path class="fil0 str1" d="M3.46 54.5c-0.06,8.58 -0.81,15.22 1.06,25.34 1.87,10.12 12.37,10.48 19.34,0.78 6.97,-9.7 10.32,-15.55 13.93,-22.26 3.61,-6.72 12.3,-4.48 12.3,2.49 0,6.97 -3.1,84.71 -3.1,84.71"/>
   <path class="fil0 str0" d="M4.18 53.09c-0.65,28.24 -1.61,56.08 -0.15,67.96 1.45,11.81 10.36,14.3 15.55,3.76 5.55,-11.27 19.47,-51.76 21.8,-60.24 2.76,-10.06 15.53,-7.78 13.55,2.52 -1.74,9.02 -7.04,38.3 -7.66,52.32 -0.51,11.6 10.73,12.09 15.48,2.96 7.84,-15.07 22.56,-52 24.79,-58.71 3.24,-9.75 16.89,-8.71 15.42,2.75 -1.58,12.28 -7.8,40.63 -11.08,68.56"/>
   <path class="fil0 str0" d="M4.11 57.31c-0.65,28.24 -1.51,51.85 -0.05,63.73 1.45,11.81 11.2,12.51 16.39,1.98 5.55,-11.27 16.09,-44.76 18.41,-53.24 2.76,-10.06 15.53,-7.78 13.55,2.52 -1.74,9.02 -4.5,33.09 -5.12,47.12 -0.51,11.6 10.73,12.09 15.48,2.96 8.21,-12.94 18.53,-41.2 21.89,-50.16 3.36,-8.96 14.3,-5.97 13.18,2.74 -0.81,6.27 -4.17,22.82 -6.04,43.18 -0.81,8.8 5.3,11.62 8.18,12.78 11.87,4.81 4.87,15.04 -0.52,21.3"/>
   <path class="fil0 str1" d="M6.48 61.42c-2.99,27.61 -6.41,51.48 2.54,67.02 7.78,13.5 20.29,2.43 25.69,-6.57 5.97,-9.95 7.46,-24.63 -29.11,-22.64"/>
   <path class="fil0 str1" d="M3.26 58.99c8.18,0.18 13.8,0.26 16.34,0.69 6.59,1.12 8.1,5.38 5.53,12.74 -9.03,25.84 -8.92,47 -3.13,57.05 6.51,11.3 16.99,2.03 21.51,-5.5 5,-8.33 6.25,-20.62 -24.37,-18.95"/>
   <path class="fil0 str1" d="M61.66 135.94c0,-28.37 4.55,-43.45 7.21,-57.6 2.36,-12.56 -2.97,-14.69 -12.56,-11.19 -9.2,3.36 -52.7,27.52 -52.7,27.52m7.42 -33.99c-6.49,25.9 -11.59,42.5 -3.93,57.57 6.36,12.5 21.26,2.94 25.69,-6.57 3.87,-8.32 1.39,-17.48 -13.81,-23.61"/>
   <path class="fil0 str1" d="M5.03 56.82c-3.98,31.1 0,79.12 0,79.12m29.82 -52c6.22,-25.75 23.81,-30.53 29.51,-13.94 6.57,19.12 -0.51,51.24 -5.86,60.76 -3.97,7.07 -12.9,7.79 -16.28,-1.06 -2.37,-6.2 -3.35,-16.67 -3.35,-27.49 0,-10.88 -6.24,-12.54 -13.95,-10.3 -7.71,2.24 -20.41,7.32 -20.41,7.32"/>
   <path class="fil0 str1" d="M53.9 153.77c1.31,-27.79 3.86,-58.42 5.07,-69.64 0.53,-4.88 -1.72,-13.37 -13.27,-9.29 -3.86,1.36 -7.68,3.22 -12.67,5.04m0 0c-8.62,3.13 -18.05,5.36 -24.17,1.13 -9.7,-6.72 -5.69,-22.07 3.48,-25.62 9.95,-3.86 20.91,1.25 21.15,14.18 0.25,12.94 -4.43,41.24 -7.41,53.68 -2.99,12.44 -19.21,16.1 -21.2,-8.03"/>
   <path class="fil0 str0" d="M20.68 58.52c4.84,-5.41 17.52,-8.58 25.22,-1.19 8.08,7.75 13.34,21.83 13.34,37.82 0,24.51 -12.53,44.38 -27.99,44.38 -15.46,0 -27.99,-19.87 -27.99,-44.38 0,-14.16 5.95,-31.92 13.46,-41.84"/>
   <path class="fil0 str0" d="M4.76 138.01c7.46,-32.09 20.44,-69.82 23.92,-78.78 3.48,-8.96 12.9,-6.55 13.77,0.04 0.87,6.59 9.83,79.98 9.83,79.98m-49.01 -30.85l9.8 -1.61m0 0l34.54 -5.69"/>
   <path class="fil0 str0" d="M6.75 56.91c0.75,13.18 -3.48,72.89 -3.48,72.89m63.93 -46.02c-3.56,1.07 -6.58,2.2 -9.68,3.64m0 0c-19.22,8.88 -29.97,24.05 -32.11,35.3 -2.52,13.23 8.15,21.45 19.16,12.07 11.82,-10.08 21.89,-47.14 6.59,-55.48 -15.3,-8.33 -33.71,15.17 -33.71,15.17m-11.18 -14.7c9.44,-16.89 16.9,-28.58 25.48,-33.06 8.58,-4.48 15.05,-0.87 13.43,8.58 -1.62,9.45 -12.92,25.99 -12.92,25.99"/>
   <path class="fil0 str0" d="M50.13 72.09c-2.99,21.39 -11.69,58.21 -22.89,67.42 -8.78,7.22 -19.85,4.8 -23.02,-6.18 -2.82,-9.75 0.36,-24.93 12.22,-26.56 9.55,-1.31 15.85,3.54 23.79,8.41m0 0c7.61,4.67 18.14,10.02 27.06,10.89 12.69,1.24 16.42,-19.65 7.96,-42.04 -7.09,-18.77 -22.24,-28.49 -38.06,-27.4 -24.96,1.72 -24.89,31.62 -10.7,35.11 7.4,1.82 13.65,1.22 20.2,-0.57m0 0c9.11,-2.5 18.31,-7.19 27.51,-9.72m0 0c10.45,-2.87 19.38,-1.59 19.38,-1.59"/>
   <path class="fil0 str0" d="M26.59 93.17l-22.45 1.29m35.2 -36.8l-25.25 -2.36c-6.94,-0.65 -10.24,2.36 -10.32,11.32l-0.5 55.97c-0.09,10.12 6.73,10.46 10.45,10.12l23.88 -2.16"/>
   <path class="fil0 str0" d="M26.59 92.45l-22.45 1.26m26.34 -59.26l-3.23 9.4m-7.83 -10.86l-1.1 9.4m21.03 15.21l-25.25 -2.32c-6.94,-0.64 -10.24,2.31 -10.32,11.1l-0.5 54.91c-0.09,9.93 6.73,10.26 10.45,9.93l23.88 -2.12"/>
   <path class="fil0 str0" d="M3.26 80.23c5.22,-17.66 21.64,-33.46 33.09,-19.53 4.32,5.26 6.51,13.95 6.92,24.28m0 0c0.69,17 -3.44,37.52 -10.95,47.73 -8.77,11.94 -21.22,4.24 -17.24,-9.44 4.17,-14.34 25.37,-37.52 33.96,-42.79 5.47,-3.36 10.32,-0.96 10.95,4.23l1.93 16.11c0.69,5.78 8.09,8.77 12.19,1.68 6.57,-11.35 10.2,-27.24 22.14,-41.42 4.54,-5.39 11.04,-2.56 10.08,3.67 -1.16,7.48 -9.41,31.3 -9.41,46.83 0,15.53 13.27,16.41 20.23,5.97"/>
   <path class="fil0 str0" d="M5.88 66.3c11.41,-24.97 44.23,-19.76 29.4,2.33 -5.12,7.63 -9.65,8.98 -14.69,12.68 -5.85,4.29 -2.27,13.4 5.94,9.92 4.91,-2.08 14.02,-8.93 21.44,-4.65 11.47,6.62 0.47,22.25 -8.06,30.62 -14.3,14.05 -30.75,23.42 -36.66,-1.28"/>
   <path class="fil0 str0" d="M5.99 57.47c-2.24,28.86 -3.48,54.87 -2.24,64.43 1.24,9.56 12.07,9.95 16.54,1.12 4.48,-8.83 23.51,-54.36 27.74,-63.56 4.23,-9.2 14.49,-5.71 13.74,2.5 -0.75,8.21 -7.77,77.11 -7.77,77.11"/>
   <path class="fil0 str1" d="M6.94 49.21c-5.77,39.55 -3.22,82.59 -2.47,91.05m40.78 -80.1c-15.92,24.13 -41.96,50.99 -41.96,50.99m36.74 19.41c-16.42,-4.23 -20.72,-10.48 -28.51,-28.24"/>
   <path class="fil0 str0" d="M3.26 144.99c9.68,-31.42 23.66,-76.17 27.59,-84.85 3.93,-8.69 14.33,-4.65 14.44,1.95 0.11,6.6 0.73,80.03 0.73,80.03"/>
   <path class="fil0 str1" d="M3.26 72.23c17.66,-28.11 38.06,-14.18 31.84,3.98 -6.22,18.16 -18.91,36.07 -25.37,47.02 -6.47,10.95 4.98,19.9 14.18,9.45 9.2,-10.45 17.17,-23.88 28.86,-24.88"/>
   <path class="fil0 str0" d="M5.99 57.47c-2.24,28.86 -3.48,54.87 -2.24,64.43 1.24,9.56 12.07,9.95 16.54,1.12 4.48,-8.83 23.51,-54.36 27.74,-63.56 4.23,-9.2 14.49,-5.71 13.74,2.5 -0.75,8.21 -7.77,77.11 -7.77,77.11m-37.44 -97.02l28.21 -1.49"/>
   <path class="fil0 str1" d="M64.28 144.54c-0.5,-34.33 -0.75,-66.92 -1.74,-80.85 -0.99,-13.93 -10.95,-15.17 -17.16,-6.97 -6.22,8.21 -7.92,18.11 -10.05,26.97 -2.14,8.86 -12.59,7.64 -13.41,-0.65 -0.66,-6.66 -0.6,-12.13 -4.27,-21.89 -2.27,-6.04 -12.71,-6.91 -13.59,2.66 -2.25,24.47 0.95,53.57 2.26,63.78"/>
   <path class="fil0 str1" d="M6.5 49.64l-3.23 86.57m43.04 -88.81l1 93.79m-42.58 -43.77l42.03 -7.97"/>
   <path class="fil0 str1" d="M8.61 57.92c-2.99,27.86 -5.35,56.06 -5.35,65.43 0,8.74 11.94,8.71 12.44,0.37 0.45,-7.59 -2.12,-18.2 13.18,-26.62 19.9,-10.95 28.11,1.62 22.89,19.53 -4.39,15.06 -20.27,38.56 -36.2,20.4m35.44 -68.08c2.05,-15.25 -6.17,-18.97 -16.31,-12.86 -7.92,4.77 -19.25,15.88 -27.12,25.9"/>
  </g>
  <g id="_105553360589728">
   <line class="fil0 str1" x1="3.26" y1="152.86" x2="47.26" y2= "152.86" />
   <path class="fil0 str1" d="M3.26 162.06c44.28,-67.42 30.1,-97.77 14.93,-109.96"/>
   <path class="fil0 str1" d="M35.21 52.1c-58.21,48.26 -21.39,99.51 -9.45,109.96"/>
   <path class="fil0 str1" d="M39.58 104.84l-18.16 0m-18.16 0l18.16 0m0 -18.16l0 36.32"/>
   <path class="fil0 str1" d="M3.26 111.06l29.85 0m-29.85 -17.17l29.85 0"/>
   <line class="fil0 str1" x1="3.26" y1="102.61" x2="28.39" y2= "102.61" />
   <path class="fil0 str1" d="M11.34 125.38c-5.69,14.32 -8.08,20.47 -8.08,20.47"/>
   <path class="fil0 str1" d="M3.29 125.38c-0.05,7.05 -0.01,10.06 -0.01,10.06"/>
   <line class="fil0 str1" x1="40.08" y1="64.54" x2="3.26" y2= "129.22" />
   <path class="fil0 str1" d="M40.53 92.08l10.24 -0.63m-30.46 1.86l20.22 -1.24m-37.27 2.28l17.06 -1.04m16.86 14.28l12.45 -0.76m-32.66 2l20.22 -1.24m-32.33 1.98l12.12 -0.74m8.24 -38.07l-11.39 52.65m31.34 -52.65l-13.18 60.95"/>
   <path class="fil0 str1" d="M11.83 125.38c-0.05,7.05 -0.01,10.06 -0.01,10.06m-8.56 -56.17c1.35,-5.68 5.81,-11.61 10.71,-14.99 9.38,-6.47 18.28,-0.5 15.31,10.57 -3.96,14.76 -17.06,19.86 -17.33,38.26"/>
   <path class="fil0 str1" d="M3.29 125.38c-0.05,7.05 -0.01,10.06 -0.01,10.06m2.99 -78.06c-1.89,15.33 -2.6,38.59 -2.85,55.73"/>
   <path class="fil0 str1" d="M38.43 77.98c-3.86,-16.67 -23.22,-20.31 -30.85,-2.61 -6.97,16.17 -4.87,39.21 1.74,50.87 4.06,7.16 13.61,9.45 21.64,-1.99 8.23,-11.73 5.72,-38.81 5.72,-38.81"/>
   <path class="fil0 str1" d="M7.58 129.72c23.02,14.11 25.33,-28.91 36.07,-61.69m-12.19 -2.99c-10.95,-5.72 -23.88,5.22 -27.36,16.67 -3.48,11.44 4.48,16.17 13.68,10.2 9.2,-5.97 14.78,-10.3 23.35,-15.54"/>
   <path class="fil0 str1" d="M25.38 99.54c4.11,2.59 8.91,4.66 12.48,6.96 10.52,6.79 6.98,18.82 -2.34,25.02 -10.98,7.3 -22.72,0.16 -26.41,-7.78m-5.85 4.6c12.19,-13.93 31.84,-40.8 36.32,-53.98 4.48,-13.18 -8.21,-18.41 -16.17,-7.46 -7.25,9.97 -9.21,25.59 1.96,32.63"/>
   <path class="fil0 str1" d="M30.16 95.76l16.07 -1.87m-36.44 4.23l20.37 -2.36m-6.87 36.01c1,-15.42 11.44,-53.73 13.18,-61.69 1.74,-7.96 -3.26,-11.65 -10.73,-8.98 -7.46,2.67 -14.71,3.32 -22.48,0.95"/>
   <path class="fil0 str1" d="M34.65 62.24c-27.12,15.92 -39.14,49.38 -26.12,66.17 6.57,8.48 15.97,5.73 20.36,-1.21 5.64,-8.93 2.81,-16.99 -2.66,-20.73 -4.74,-3.25 -13.13,-4.7 -22.18,3.9"/>
   <path class="fil0 str1" d="M4.01 129.04c9.7,9.2 22.89,5.22 25.87,-16.67 2.99,-21.89 -10.72,-25.36 -24.41,-16.28m30.38 -34.96c-20.4,3.48 -20.65,1.99 -26.12,20.4 -5.47,18.41 -6.47,22.64 -6.47,22.64"/>
   <path class="fil0 str1" d="M12.82 60.5c-3.23,13.43 -7.16,30.29 -9.15,37.01 -1.99,6.72 3.76,9.66 7.78,7.39 4.02,-2.27 11.87,-6.37 16.17,-8.58m5.1 -22.89c-2.74,16.17 -9.2,60.95 -9.2,60.95"/>
   <path class="fil0 str1" d="M4.76 128.98c8.21,9.45 15.42,3.11 24.25,-13.93 8.49,-16.38 6.03,-28.53 -10.63,-23.26m-15.11 -17.41c13.34,-20.6 25,-14.73 24.32,-3.17 -0.61,10.26 -14.96,26.32 -21.58,34.02"/>
   <path class="fil0 str1" d="M29.71 114.65c6.07,1.99 13.48,7.11 17.93,14.08m-27.12 -52.74c6.72,-20.4 23.28,-16 19.9,2.74 -2.24,12.4 -10.57,41.54 -20.03,52.99 -9.45,11.44 -22.51,1.87 -14.8,-10.95 4.39,-7.3 14.82,-9.17 24.11,-6.12"/>
   <path class="fil0 str1" d="M3.26 91.35c8.16,-12.26 18.5,-27.55 21.55,-31.41 3.73,-4.73 12.56,-3.48 10.95,4.98 -1.62,8.46 -14.43,70.72 -14.43,70.72"/>
   <path class="fil0 str0" d="M55.1 86.97c-4.78,-5.87 -12.21,-5.32 -17.09,-1.32 -6.38,5.22 -13.47,17.27 -13.53,29.84 -0.04,10.46 11.41,10.49 15.5,3.21 4.34,-7.71 11.6,-26.15 20.31,-36 4.74,-5.36 11.22,-2.39 10.04,3.99 -1.19,6.42 -9.17,35.42 -7.44,52.3 1.3,12.63 9.22,7.95 14.28,0.94 6.74,-9.33 44.11,-94.55 -29.51,-89.4 -30.62,2.15 -77.8,63.74 -8.73,107.38"/>
   <path class="fil0 str1" d="M64.94 134.69c0,0 -6.63,-5.61 -14.94,-13.53m0 0c-8.42,-8.03 -18.56,-18.43 -25.58,-28.09m0 0c-5.31,-7.3 -10.38,-20.26 -4.55,-27.29 11.11,-13.38 35.08,-3.09 27.83,11.94 -6.86,14.23 -45.37,17.16 -44.42,37.34 0.9,19.22 25.77,27.11 40.83,12.39 9.24,-9.04 14.81,-22.53 15.32,-25.67"/>
  </g>
 </g>
</svg>
